<svg width="21" height="20" viewBox="0 0 21 20" fill="none" xmlns="http://www.w3.org/2000/svg">
<path d="M14.95 0.393006L20.607 6.05001C20.7945 6.23753 20.8998 6.49184 20.8998 6.75701C20.8998 7.02217 20.7945 7.27648 20.607 7.46401L12.828 15.243L10.708 15.95L9.29298 17.364C9.10545 17.5515 8.85114 17.6568 8.58598 17.6568C8.32082 17.6568 8.06651 17.5515 7.87898 17.364L3.63598 13.121C3.44851 12.9335 3.34319 12.6792 3.34319 12.414C3.34319 12.1488 3.44851 11.8945 3.63598 11.707L5.04998 10.293L5.75698 8.17201L13.536 0.393006C13.7235 0.205535 13.9778 0.10022 14.243 0.10022C14.5081 0.10022 14.7625 0.205535 14.95 0.393006ZM15.657 3.92901L9.29298 10.293L10.707 11.707L17.071 5.34301L15.657 3.92901ZM3.28198 14.889L6.11098 17.718L4.69698 19.132L0.453979 17.718L3.28198 14.889Z" fill="#8A95A7"/>
</svg>
