<svg width="20" height="20" viewBox="0 0 20 20" fill="none" xmlns="http://www.w3.org/2000/svg">
<path d="M10 20C15.5229 20 20 15.5229 20 10C20 8.17857 19.513 6.47087 18.6622 5H15.3333C14.9296 5 14.5655 5.24274 14.4102 5.61538L9.92307 16.3846C9.77261 16.7457 9.42538 16.9859 9.03442 16.9994C8.64346 17.0129 8.28052 16.7971 8.10556 16.4472L5.65836 11.5528C5.48895 11.214 5.1427 11 4.76395 11H2V10C2 9.44772 2.44772 9 3 9H6C6.37878 9 6.72504 9.214 6.89444 9.55279L8.9173 13.5985L13.0769 3.61538C13.2322 3.24274 13.5963 3 14 3H17.1414C15.3265 1.14864 12.7974 0 10 0C4.47714 0 0 4.47715 0 10C0 15.5229 4.47714 20 10 20Z" fill="#00183B"/>
</svg>
