<svg width="14" height="14" viewBox="0 0 14 14" fill="none" xmlns="http://www.w3.org/2000/svg">
<path d="M10.5 7.5C10.4981 8.17843 10.299 8.84166 9.92698 9.40902C9.55499 9.97637 9.02613 10.4234 8.40475 10.6957C7.78335 10.968 7.09622 11.0538 6.42695 10.9427C5.75768 10.8316 5.13511 10.5284 4.635 10.07L5.345 9.365C5.70516 9.68312 6.14937 9.8907 6.62446 9.96288C7.09954 10.0351 7.58536 9.96881 8.02376 9.77203C8.46216 9.57525 8.83455 9.2563 9.09637 8.85335C9.35818 8.4504 9.49832 7.98053 9.5 7.5V5.21L14 0.71L13.295 0L0 13.295L0.705 14L3.925 10.78C4.63075 11.4466 5.53493 11.8645 6.5 11.97V13H4.5V14H9.5V13H7.5V11.97C8.59968 11.8471 9.61551 11.3232 10.3534 10.4987C11.0913 9.67408 11.4995 8.60653 11.5 7.5V6H10.5V7.5Z" fill="#8C0808"/>
<path d="M3.5 7.66V6H2.5V7.5C2.50065 7.85202 2.5426 8.20275 2.625 8.545L3.5 7.66Z" fill="#8C0808"/>
<path d="M8.32313 0.432666C8.82489 0.745843 9.19937 1.22678 9.38 1.79001L4.5 6.67001V2.50001C4.51265 1.90866 4.73456 1.34095 5.12628 0.897781C5.518 0.454608 6.05417 0.164678 6.63949 0.0795193C7.22481 -0.00563979 7.82136 0.119489 8.32313 0.432666Z" fill="#8C0808"/>
</svg>
