<svg width="14" height="22" viewBox="0 0 14 22" fill="none" xmlns="http://www.w3.org/2000/svg">
<path d="M9.65165 14.4017C8.94839 15.1049 7.99456 15.5 7 15.5C6.00544 15.5 5.05161 15.1049 4.34835 14.4017C3.64509 13.6984 3.25 12.7446 3.25 11.75V4.25C3.25 3.25544 3.64509 2.30161 4.34835 1.59835C5.05161 0.895088 6.00544 0.5 7 0.5C7.99456 0.5 8.94839 0.895088 9.65165 1.59835C10.3549 2.30161 10.75 3.25544 10.75 4.25V11.75C10.75 12.7446 10.3549 13.6984 9.65165 14.4017Z" fill="#8A95A7"/>
<path d="M12.25 11.75V9.5H13.75V11.75C13.7492 13.4098 13.1369 15.0111 12.0301 16.248C10.9233 17.4849 9.39952 18.2706 7.75 18.455V20H10.75V21.5H3.25V20H6.25V18.455C4.60048 18.2706 3.07674 17.4849 1.96991 16.248C0.863091 15.0111 0.250788 13.4098 0.25 11.75V9.5H1.75V11.75C1.75 13.1424 2.30312 14.4777 3.28769 15.4623C4.27226 16.4469 5.60761 17 7 17C8.39239 17 9.72774 16.4469 10.7123 15.4623C11.6969 14.4777 12.25 13.1424 12.25 11.75Z" fill="#8A95A7"/>
</svg>
