<svg width="20" height="20" viewBox="0 0 20 20" fill="none" xmlns="http://www.w3.org/2000/svg">
<path d="M15.409 18C14.633 15.601 13.132 14.115 11.143 12.398C13.0894 10.842 15.5081 9.99613 18 10V2H19.008C19.556 2 20 2.445 20 2.993V19.007C19.9982 19.2696 19.8931 19.521 19.7075 19.7068C19.5219 19.8926 19.2706 19.9979 19.008 20H0.992C0.728813 19.9997 0.476497 19.895 0.290489 19.7088C0.104482 19.5226 -1.33455e-07 19.2702 0 19.007V2.993C0.00183004 2.73038 0.1069 2.47902 0.292513 2.29322C0.478126 2.10742 0.72938 2.00209 0.992 2H4V0H6V4H2V11C7.22 11 11.662 13.462 13.313 18H15.409ZM16 0V4H8V2H14V0H16ZM14.5 9C14.1022 9 13.7206 8.84196 13.4393 8.56066C13.158 8.27936 13 7.89782 13 7.5C13 7.10218 13.158 6.72064 13.4393 6.43934C13.7206 6.15804 14.1022 6 14.5 6C14.8978 6 15.2794 6.15804 15.5607 6.43934C15.842 6.72064 16 7.10218 16 7.5C16 7.89782 15.842 8.27936 15.5607 8.56066C15.2794 8.84196 14.8978 9 14.5 9Z" fill="#8A95A7"/>
</svg>
