<svg width="14" height="14" viewBox="0 0 14 14" fill="none" xmlns="http://www.w3.org/2000/svg">
<path d="M6.99998 6.33334V4.33334L9.66665 7.00001L6.99998 9.66668V7.66668H4.33331V6.33334H6.99998ZM6.99998 0.333344C10.68 0.333344 13.6666 3.32001 13.6666 7.00001C13.6666 10.68 10.68 13.6667 6.99998 13.6667C3.31998 13.6667 0.333313 10.68 0.333313 7.00001C0.333313 3.32001 3.31998 0.333344 6.99998 0.333344ZM6.99998 12.3333C9.94665 12.3333 12.3333 9.94668 12.3333 7.00001C12.3333 4.05334 9.94665 1.66668 6.99998 1.66668C4.05331 1.66668 1.66665 4.05334 1.66665 7.00001C1.66665 9.94668 4.05331 12.3333 6.99998 12.3333Z" fill="#2F548B"/>
</svg>
