<svg width="20" height="19" viewBox="0 0 20 19" fill="none" xmlns="http://www.w3.org/2000/svg">
<path d="M1.81225e-05 1C1.81225e-05 0.448 0.455018 0 0.992018 0H10V2H2.00002V14H18V10H20L20 15C20 15.552 19.545 16 19.008 16H0.992018C0.861146 15.9997 0.731614 15.9736 0.610855 15.9232C0.490096 15.8727 0.380487 15.7989 0.288319 15.706C0.196151 15.6131 0.123237 15.5029 0.0737631 15.3818C0.0242889 15.2606 -0.000772116 15.1309 1.81225e-05 15V1Z" fill="#8A95A7"/>
<path d="M3.00002 17H17V19H3.00002V17Z" fill="#8A95A7"/>
<path d="M18 3.41425L19.008 5L20 7V0H13L15 1L16.5858 2L10.2929 8.29291L11.7072 9.70712L18 3.41425Z" fill="#8A95A7"/>
</svg>
