<svg width="14" height="12" viewBox="0 0 14 12" fill="none" xmlns="http://www.w3.org/2000/svg">
<path d="M13.6666 10.8889C13.6666 11.0092 13.6254 11.1134 13.5429 11.2014C13.4605 11.2893 13.3628 11.3333 13.25 11.3333C13.1371 11.3333 13.0395 11.2893 12.957 11.2014C12.8745 11.1134 12.8333 11.0092 12.8333 10.8889V5.04166L8.23696 7.49999C7.88974 7.68517 7.47741 7.77777 6.99998 7.77777C6.52255 7.77777 6.11022 7.68517 5.763 7.49999L0.841125 4.87499C0.502584 4.6898 0.333313 4.4699 0.333313 4.21527C0.333313 3.96064 0.502584 3.74536 0.841125 3.56943L5.763 0.944434C6.11022 0.759249 6.52255 0.666656 6.99998 0.666656C7.47741 0.666656 7.88974 0.759249 8.23696 0.944434L13.1588 3.56943C13.454 3.72684 13.6189 3.92129 13.6536 4.15277C13.6623 4.16203 13.6666 4.18055 13.6666 4.20832V10.8889ZM8.65363 8.38888L11.1666 7.04166V8.99999C11.1666 9.39814 10.7608 9.73841 9.9492 10.0208C9.13757 10.3032 8.15449 10.4444 6.99998 10.4444C5.84547 10.4444 4.86239 10.3032 4.05076 10.0208C3.23913 9.73841 2.83331 9.39814 2.83331 8.99999V7.04166L5.34633 8.38888C5.69356 8.57406 6.24477 8.66666 6.99998 8.66666C7.75519 8.66666 8.3064 8.57406 8.65363 8.38888Z" fill="#2F548B"/>
</svg>
