<svg width="15" height="14" viewBox="0 0 15 14" fill="none" xmlns="http://www.w3.org/2000/svg">
<path d="M14.4747 3.00777C14.5625 3.00074 14.6505 3.01704 14.73 3.055C14.8116 3.09723 14.8799 3.1611 14.9275 3.2396C14.9751 3.31809 15.0002 3.40819 15 3.5V10.5C14.9996 10.5916 14.974 10.6813 14.9261 10.7594C14.8781 10.8375 14.8097 10.9008 14.7281 10.9426C14.6466 10.9844 14.5552 11.003 14.4638 10.9964C14.3724 10.9897 14.2847 10.9581 14.21 10.905L11.5 8.97V11C11.5 11.2652 11.3947 11.5196 11.2071 11.7071C11.0196 11.8946 10.7652 12 10.5 12H3.72003L1.72003 14L1.00003 13.28L14.28 0L15 0.72L11.5 4.22V5.03L14.23 3.095C14.3025 3.04488 14.3869 3.01479 14.4747 3.00777Z" fill="#8C0808"/>
<path d="M2.00001 2H10.155L1.00001 11.145C0.997554 11.0967 0.997554 11.0483 1.00001 11V3C1.00001 2.73478 1.10537 2.48043 1.29291 2.29289C1.48044 2.10536 1.7348 2 2.00001 2Z" fill="#8C0808"/>
</svg>
